<mxfile host="Electron" modified="2024-09-21T12:37:10.974Z" agent="Mozilla/5.0 (Windows NT 10.0; Win64; x64) AppleWebKit/537.36 (KHTML, like Gecko) draw.io/24.4.0 Chrome/120.0.6099.109 Electron/28.1.0 Safari/537.36" etag="hIBAHeLlnzkfhhE36IFY" version="24.4.0" type="device">
  <diagram name="第 1 页" id="ClGH-n2kTh6jemQ9F2yR">
    <mxGraphModel dx="1036" dy="614" grid="1" gridSize="10" guides="1" tooltips="1" connect="1" arrows="1" fold="1" page="1" pageScale="1" pageWidth="827" pageHeight="1169" math="0" shadow="0">
      <root>
        <mxCell id="0" />
        <mxCell id="1" parent="0" />
        <mxCell id="5gSoZLbbYHPeGGnmyBos-1" value="" style="image;html=1;image=img/lib/clip_art/networking/Wireless_Router_N_128x128.png;fontFamily=Times New Roman;fontSize=15;" parent="1" vertex="1">
          <mxGeometry x="60" y="80" width="140" height="120" as="geometry" />
        </mxCell>
        <mxCell id="5gSoZLbbYHPeGGnmyBos-2" value="" style="image;html=1;image=img/lib/clip_art/networking/Wireless_Router_N_128x128.png;fontFamily=Times New Roman;fontSize=15;" parent="1" vertex="1">
          <mxGeometry x="360" y="80" width="120" height="120" as="geometry" />
        </mxCell>
        <mxCell id="5gSoZLbbYHPeGGnmyBos-3" value="" style="image;html=1;image=img/lib/clip_art/computers/Laptop_128x128.png;fontFamily=Times New Roman;fontSize=15;" parent="1" vertex="1">
          <mxGeometry x="640" y="80" width="120" height="120" as="geometry" />
        </mxCell>
        <mxCell id="5gSoZLbbYHPeGGnmyBos-4" value="" style="html=1;outlineConnect=0;fillColor=#1ba1e2;strokeColor=#006EAF;gradientDirection=north;strokeWidth=2;shape=mxgraph.networks.comm_link_edge;html=1;rounded=0;exitX=1;exitY=0.25;exitDx=0;exitDy=0;entryX=0;entryY=0.25;entryDx=0;entryDy=0;fontFamily=Times New Roman;fontSize=15;" parent="1" source="5gSoZLbbYHPeGGnmyBos-1" target="5gSoZLbbYHPeGGnmyBos-2" edge="1">
          <mxGeometry width="100" height="100" relative="1" as="geometry">
            <mxPoint x="360" y="270" as="sourcePoint" />
            <mxPoint x="460" y="170" as="targetPoint" />
          </mxGeometry>
        </mxCell>
        <mxCell id="5gSoZLbbYHPeGGnmyBos-5" value="" style="html=1;outlineConnect=0;fillColor=#ffe6cc;strokeColor=#d79b00;gradientDirection=north;strokeWidth=2;shape=mxgraph.networks.comm_link_edge;html=1;rounded=0;exitX=1;exitY=0.75;exitDx=0;exitDy=0;entryX=0;entryY=0.75;entryDx=0;entryDy=0;fontFamily=Times New Roman;fontSize=15;" parent="1" source="5gSoZLbbYHPeGGnmyBos-1" target="5gSoZLbbYHPeGGnmyBos-2" edge="1">
          <mxGeometry width="100" height="100" relative="1" as="geometry">
            <mxPoint x="210" y="120" as="sourcePoint" />
            <mxPoint x="370" y="120" as="targetPoint" />
          </mxGeometry>
        </mxCell>
        <mxCell id="5gSoZLbbYHPeGGnmyBos-6" value="" style="html=1;outlineConnect=0;fillColor=#ffe6cc;strokeColor=#d79b00;gradientDirection=north;strokeWidth=2;shape=mxgraph.networks.comm_link_edge;html=1;rounded=0;exitX=1;exitY=0.5;exitDx=0;exitDy=0;entryX=0;entryY=0.5;entryDx=0;entryDy=0;fontFamily=Times New Roman;fontSize=15;" parent="1" source="5gSoZLbbYHPeGGnmyBos-2" target="5gSoZLbbYHPeGGnmyBos-3" edge="1">
          <mxGeometry width="100" height="100" relative="1" as="geometry">
            <mxPoint x="220" y="130" as="sourcePoint" />
            <mxPoint x="380" y="130" as="targetPoint" />
          </mxGeometry>
        </mxCell>
        <mxCell id="5gSoZLbbYHPeGGnmyBos-7" value="2.4GHz" style="text;html=1;align=center;verticalAlign=middle;resizable=0;points=[];autosize=1;strokeColor=none;fillColor=none;fontFamily=Times New Roman;fontSize=15;" parent="1" vertex="1">
          <mxGeometry x="235" y="58" width="70" height="30" as="geometry" />
        </mxCell>
        <mxCell id="5gSoZLbbYHPeGGnmyBos-8" value="5GHz" style="text;html=1;align=center;verticalAlign=middle;resizable=0;points=[];autosize=1;strokeColor=none;fillColor=none;fontFamily=Times New Roman;fontSize=15;" parent="1" vertex="1">
          <mxGeometry x="240" y="190" width="60" height="30" as="geometry" />
        </mxCell>
        <mxCell id="5gSoZLbbYHPeGGnmyBos-9" value="5GHz" style="text;html=1;align=center;verticalAlign=middle;resizable=0;points=[];autosize=1;strokeColor=none;fillColor=none;fontFamily=Times New Roman;fontSize=15;" parent="1" vertex="1">
          <mxGeometry x="535" y="160" width="60" height="30" as="geometry" />
        </mxCell>
        <mxCell id="5gSoZLbbYHPeGGnmyBos-10" value="gateway router" style="text;html=1;align=center;verticalAlign=middle;resizable=0;points=[];autosize=1;strokeColor=none;fillColor=none;fontFamily=Times New Roman;fontSize=15;" parent="1" vertex="1">
          <mxGeometry x="75" y="208" width="110" height="30" as="geometry" />
        </mxCell>
        <mxCell id="5gSoZLbbYHPeGGnmyBos-11" value="relay router&lt;div&gt;（5G multiplexing）&lt;br&gt;&lt;/div&gt;" style="text;html=1;align=center;verticalAlign=middle;resizable=0;points=[];autosize=1;strokeColor=none;fillColor=none;fontFamily=Times New Roman;fontSize=15;" parent="1" vertex="1">
          <mxGeometry x="339" y="208" width="150" height="50" as="geometry" />
        </mxCell>
      </root>
    </mxGraphModel>
  </diagram>
</mxfile>
